<mxfile host="app.diagrams.net" agent="Mozilla/5.0 (Windows NT 10.0; Win64; x64) AppleWebKit/537.36 (KHTML, like Gecko) Chrome/130.0.0.0 Safari/537.36 Edg/130.0.0.0" version="24.7.17">
  <diagram name="ページ1" id="CurkHe3l2MO2rF6_3hxU">
    <mxGraphModel dx="1305" dy="714" grid="1" gridSize="10" guides="1" tooltips="1" connect="1" arrows="1" fold="1" page="1" pageScale="1" pageWidth="827" pageHeight="1169" math="0" shadow="0">
      <root>
        <mxCell id="0" />
        <mxCell id="1" parent="0" />
        <mxCell id="ERc8KlYLKag8S-tgoUKt-1" value="AWS Cloud" style="points=[[0,0],[0.25,0],[0.5,0],[0.75,0],[1,0],[1,0.25],[1,0.5],[1,0.75],[1,1],[0.75,1],[0.5,1],[0.25,1],[0,1],[0,0.75],[0,0.5],[0,0.25]];outlineConnect=0;gradientColor=none;html=1;whiteSpace=wrap;fontSize=12;fontStyle=0;container=1;pointerEvents=0;collapsible=0;recursiveResize=0;shape=mxgraph.aws4.group;grIcon=mxgraph.aws4.group_aws_cloud_alt;strokeColor=#232F3E;fillColor=none;verticalAlign=top;align=left;spacingLeft=30;fontColor=#232F3E;dashed=0;" vertex="1" parent="1">
          <mxGeometry width="942" height="540" as="geometry" />
        </mxCell>
        <mxCell id="ERc8KlYLKag8S-tgoUKt-4" value="ap-northeast-1a" style="fillColor=none;strokeColor=#147EBA;dashed=1;verticalAlign=top;fontStyle=0;fontColor=#147EBA;whiteSpace=wrap;html=1;" vertex="1" parent="ERc8KlYLKag8S-tgoUKt-1">
          <mxGeometry x="120" y="10" width="650" height="210" as="geometry" />
        </mxCell>
        <mxCell id="ERc8KlYLKag8S-tgoUKt-2" value="Public subnet-1a" style="points=[[0,0],[0.25,0],[0.5,0],[0.75,0],[1,0],[1,0.25],[1,0.5],[1,0.75],[1,1],[0.75,1],[0.5,1],[0.25,1],[0,1],[0,0.75],[0,0.5],[0,0.25]];outlineConnect=0;gradientColor=none;html=1;whiteSpace=wrap;fontSize=12;fontStyle=0;container=1;pointerEvents=0;collapsible=0;recursiveResize=0;shape=mxgraph.aws4.group;grIcon=mxgraph.aws4.group_security_group;grStroke=0;strokeColor=#7AA116;fillColor=#CCFFCC;verticalAlign=top;align=left;spacingLeft=30;fontColor=#248814;dashed=0;" vertex="1" parent="ERc8KlYLKag8S-tgoUKt-1">
          <mxGeometry x="160" y="40" width="130" height="130" as="geometry" />
        </mxCell>
        <mxCell id="ERc8KlYLKag8S-tgoUKt-10" value="" style="sketch=0;outlineConnect=0;fontColor=#232F3E;gradientColor=none;fillColor=#8C4FFF;strokeColor=none;dashed=0;verticalLabelPosition=bottom;verticalAlign=top;align=center;html=1;fontSize=12;fontStyle=0;aspect=fixed;pointerEvents=1;shape=mxgraph.aws4.elastic_network_interface;" vertex="1" parent="ERc8KlYLKag8S-tgoUKt-2">
          <mxGeometry x="10" y="52" width="48" height="48" as="geometry" />
        </mxCell>
        <mxCell id="ERc8KlYLKag8S-tgoUKt-7" value="Private subnet-1a" style="points=[[0,0],[0.25,0],[0.5,0],[0.75,0],[1,0],[1,0.25],[1,0.5],[1,0.75],[1,1],[0.75,1],[0.5,1],[0.25,1],[0,1],[0,0.75],[0,0.5],[0,0.25]];outlineConnect=0;gradientColor=none;html=1;whiteSpace=wrap;fontSize=12;fontStyle=0;container=1;pointerEvents=0;collapsible=0;recursiveResize=0;shape=mxgraph.aws4.group;grIcon=mxgraph.aws4.group_security_group;grStroke=0;strokeColor=#00A4A6;fillColor=#E6F6F7;verticalAlign=top;align=left;spacingLeft=30;fontColor=#147EBA;dashed=0;" vertex="1" parent="ERc8KlYLKag8S-tgoUKt-1">
          <mxGeometry x="309" y="40" width="451" height="130" as="geometry" />
        </mxCell>
        <mxCell id="ERc8KlYLKag8S-tgoUKt-9" value="" style="sketch=0;outlineConnect=0;fontColor=#232F3E;gradientColor=none;fillColor=#8C4FFF;strokeColor=none;dashed=0;verticalLabelPosition=bottom;verticalAlign=top;align=center;html=1;fontSize=12;fontStyle=0;aspect=fixed;pointerEvents=1;shape=mxgraph.aws4.application_load_balancer;" vertex="1" parent="ERc8KlYLKag8S-tgoUKt-1">
          <mxGeometry x="160" y="215.5" width="49" height="49" as="geometry" />
        </mxCell>
        <mxCell id="ERc8KlYLKag8S-tgoUKt-27" value="" style="sketch=0;points=[[0,0,0],[0.25,0,0],[0.5,0,0],[0.75,0,0],[1,0,0],[0,1,0],[0.25,1,0],[0.5,1,0],[0.75,1,0],[1,1,0],[0,0.25,0],[0,0.5,0],[0,0.75,0],[1,0.25,0],[1,0.5,0],[1,0.75,0]];outlineConnect=0;fontColor=#232F3E;fillColor=#ED7100;strokeColor=#ffffff;dashed=0;verticalLabelPosition=bottom;verticalAlign=top;align=center;html=1;fontSize=12;fontStyle=0;aspect=fixed;shape=mxgraph.aws4.resourceIcon;resIcon=mxgraph.aws4.ec2;" vertex="1" parent="ERc8KlYLKag8S-tgoUKt-1">
          <mxGeometry x="450" y="94" width="46" height="46" as="geometry" />
        </mxCell>
        <mxCell id="ERc8KlYLKag8S-tgoUKt-26" value="" style="sketch=0;points=[[0,0,0],[0.25,0,0],[0.5,0,0],[0.75,0,0],[1,0,0],[0,1,0],[0.25,1,0],[0.5,1,0],[0.75,1,0],[1,1,0],[0,0.25,0],[0,0.5,0],[0,0.75,0],[1,0.25,0],[1,0.5,0],[1,0.75,0]];outlineConnect=0;fontColor=#232F3E;fillColor=#ED7100;strokeColor=#ffffff;dashed=0;verticalLabelPosition=bottom;verticalAlign=top;align=center;html=1;fontSize=12;fontStyle=0;aspect=fixed;shape=mxgraph.aws4.resourceIcon;resIcon=mxgraph.aws4.ec2;" vertex="1" parent="ERc8KlYLKag8S-tgoUKt-1">
          <mxGeometry x="340" y="94" width="46" height="46" as="geometry" />
        </mxCell>
        <mxCell id="ERc8KlYLKag8S-tgoUKt-31" value="" style="sketch=0;outlineConnect=0;fontColor=#232F3E;gradientColor=none;fillColor=#8C4FFF;strokeColor=none;dashed=0;verticalLabelPosition=bottom;verticalAlign=top;align=center;html=1;fontSize=12;fontStyle=0;aspect=fixed;pointerEvents=1;shape=mxgraph.aws4.internet_gateway;" vertex="1" parent="ERc8KlYLKag8S-tgoUKt-1">
          <mxGeometry x="50" y="220" width="44.5" height="44.5" as="geometry" />
        </mxCell>
        <mxCell id="ERc8KlYLKag8S-tgoUKt-33" value="VPC" style="sketch=0;outlineConnect=0;gradientColor=none;html=1;whiteSpace=wrap;fontSize=12;fontStyle=0;shape=mxgraph.aws4.group;grIcon=mxgraph.aws4.group_vpc;strokeColor=#336600;fillColor=none;verticalAlign=top;align=left;spacingLeft=30;fontColor=#879196;dashed=0;" vertex="1" parent="ERc8KlYLKag8S-tgoUKt-1">
          <mxGeometry x="40" y="40" width="760" height="480" as="geometry" />
        </mxCell>
        <mxCell id="ERc8KlYLKag8S-tgoUKt-23" value="" style="group" vertex="1" connectable="0" parent="ERc8KlYLKag8S-tgoUKt-1">
          <mxGeometry x="560" y="50" width="210" height="420" as="geometry" />
        </mxCell>
        <mxCell id="ERc8KlYLKag8S-tgoUKt-34" value="ap-northeast-1a" style="fillColor=none;strokeColor=#147EBA;dashed=1;verticalAlign=top;fontStyle=0;fontColor=#147EBA;whiteSpace=wrap;html=1;" vertex="1" parent="ERc8KlYLKag8S-tgoUKt-23">
          <mxGeometry x="-440" y="210" width="650" height="210" as="geometry" />
        </mxCell>
        <mxCell id="ERc8KlYLKag8S-tgoUKt-35" value="Public subnet-1a" style="points=[[0,0],[0.25,0],[0.5,0],[0.75,0],[1,0],[1,0.25],[1,0.5],[1,0.75],[1,1],[0.75,1],[0.5,1],[0.25,1],[0,1],[0,0.75],[0,0.5],[0,0.25]];outlineConnect=0;gradientColor=none;html=1;whiteSpace=wrap;fontSize=12;fontStyle=0;container=1;pointerEvents=0;collapsible=0;recursiveResize=0;shape=mxgraph.aws4.group;grIcon=mxgraph.aws4.group_security_group;grStroke=0;strokeColor=#7AA116;fillColor=#CCFFCC;verticalAlign=top;align=left;spacingLeft=30;fontColor=#248814;dashed=0;" vertex="1" parent="ERc8KlYLKag8S-tgoUKt-23">
          <mxGeometry x="-400" y="240" width="130" height="130" as="geometry" />
        </mxCell>
        <mxCell id="ERc8KlYLKag8S-tgoUKt-36" value="" style="sketch=0;outlineConnect=0;fontColor=#232F3E;gradientColor=none;fillColor=#8C4FFF;strokeColor=none;dashed=0;verticalLabelPosition=bottom;verticalAlign=top;align=center;html=1;fontSize=12;fontStyle=0;aspect=fixed;pointerEvents=1;shape=mxgraph.aws4.elastic_network_interface;" vertex="1" parent="ERc8KlYLKag8S-tgoUKt-35">
          <mxGeometry x="10" y="52" width="48" height="48" as="geometry" />
        </mxCell>
        <mxCell id="ERc8KlYLKag8S-tgoUKt-37" value="Private subnet-1a" style="points=[[0,0],[0.25,0],[0.5,0],[0.75,0],[1,0],[1,0.25],[1,0.5],[1,0.75],[1,1],[0.75,1],[0.5,1],[0.25,1],[0,1],[0,0.75],[0,0.5],[0,0.25]];outlineConnect=0;gradientColor=none;html=1;whiteSpace=wrap;fontSize=12;fontStyle=0;container=1;pointerEvents=0;collapsible=0;recursiveResize=0;shape=mxgraph.aws4.group;grIcon=mxgraph.aws4.group_security_group;grStroke=0;strokeColor=#00A4A6;fillColor=#99CCFF;verticalAlign=top;align=left;spacingLeft=30;fontColor=#147EBA;dashed=0;opacity=50;" vertex="1" parent="ERc8KlYLKag8S-tgoUKt-23">
          <mxGeometry x="-251" y="240" width="451" height="130" as="geometry" />
        </mxCell>
        <mxCell id="ERc8KlYLKag8S-tgoUKt-41" value="" style="sketch=0;points=[[0,0,0],[0.25,0,0],[0.5,0,0],[0.75,0,0],[1,0,0],[0,1,0],[0.25,1,0],[0.5,1,0],[0.75,1,0],[1,1,0],[0,0.25,0],[0,0.5,0],[0,0.75,0],[1,0.25,0],[1,0.5,0],[1,0.75,0]];outlineConnect=0;fontColor=#232F3E;fillColor=#ED7100;strokeColor=#ffffff;dashed=0;verticalLabelPosition=bottom;verticalAlign=top;align=center;html=1;fontSize=12;fontStyle=0;aspect=fixed;shape=mxgraph.aws4.resourceIcon;resIcon=mxgraph.aws4.ec2;" vertex="1" parent="ERc8KlYLKag8S-tgoUKt-23">
          <mxGeometry x="-110" y="294" width="46" height="46" as="geometry" />
        </mxCell>
        <mxCell id="ERc8KlYLKag8S-tgoUKt-42" value="" style="sketch=0;points=[[0,0,0],[0.25,0,0],[0.5,0,0],[0.75,0,0],[1,0,0],[0,1,0],[0.25,1,0],[0.5,1,0],[0.75,1,0],[1,1,0],[0,0.25,0],[0,0.5,0],[0,0.75,0],[1,0.25,0],[1,0.5,0],[1,0.75,0]];outlineConnect=0;fontColor=#232F3E;fillColor=#ED7100;strokeColor=#ffffff;dashed=0;verticalLabelPosition=bottom;verticalAlign=top;align=center;html=1;fontSize=12;fontStyle=0;aspect=fixed;shape=mxgraph.aws4.resourceIcon;resIcon=mxgraph.aws4.ec2;" vertex="1" parent="ERc8KlYLKag8S-tgoUKt-23">
          <mxGeometry x="-220" y="294" width="46" height="46" as="geometry" />
        </mxCell>
        <mxCell id="ERc8KlYLKag8S-tgoUKt-22" value="" style="rounded=0;whiteSpace=wrap;html=1;strokeColor=none;fillColor=#99CCFF;opacity=50;" vertex="1" parent="ERc8KlYLKag8S-tgoUKt-23">
          <mxGeometry width="180" height="370" as="geometry" />
        </mxCell>
        <mxCell id="ERc8KlYLKag8S-tgoUKt-20" value="" style="sketch=0;points=[[0,0,0],[0.25,0,0],[0.5,0,0],[0.75,0,0],[1,0,0],[0,1,0],[0.25,1,0],[0.5,1,0],[0.75,1,0],[1,1,0],[0,0.25,0],[0,0.5,0],[0,0.75,0],[1,0.25,0],[1,0.5,0],[1,0.75,0]];outlineConnect=0;fontColor=#232F3E;fillColor=#007FFF;strokeColor=#ffffff;dashed=0;verticalLabelPosition=bottom;verticalAlign=top;align=center;html=1;fontSize=12;fontStyle=0;aspect=fixed;shape=mxgraph.aws4.resourceIcon;resIcon=mxgraph.aws4.rds;" vertex="1" parent="ERc8KlYLKag8S-tgoUKt-23">
          <mxGeometry width="30" height="30" as="geometry" />
        </mxCell>
        <mxCell id="ERc8KlYLKag8S-tgoUKt-30" value="RDS" style="text;html=1;align=center;verticalAlign=middle;whiteSpace=wrap;rounded=0;" vertex="1" parent="ERc8KlYLKag8S-tgoUKt-23">
          <mxGeometry x="-14" y="24" width="60" height="30" as="geometry" />
        </mxCell>
        <mxCell id="ERc8KlYLKag8S-tgoUKt-38" value="" style="sketch=0;points=[[0,0,0],[0.25,0,0],[0.5,0,0],[0.75,0,0],[1,0,0],[0,1,0],[0.25,1,0],[0.5,1,0],[0.75,1,0],[1,1,0],[0,0.25,0],[0,0.5,0],[0,0.75,0],[1,0.25,0],[1,0.5,0],[1,0.75,0]];outlineConnect=0;fontColor=#232F3E;fillColor=#007FFF;strokeColor=#ffffff;dashed=0;verticalLabelPosition=bottom;verticalAlign=top;align=center;html=1;fontSize=12;fontStyle=0;aspect=fixed;shape=mxgraph.aws4.resourceIcon;resIcon=mxgraph.aws4.rds;" vertex="1" parent="ERc8KlYLKag8S-tgoUKt-23">
          <mxGeometry y="250" width="30" height="30" as="geometry" />
        </mxCell>
        <mxCell id="ERc8KlYLKag8S-tgoUKt-39" value="RDS" style="text;html=1;align=center;verticalAlign=middle;whiteSpace=wrap;rounded=0;" vertex="1" parent="ERc8KlYLKag8S-tgoUKt-23">
          <mxGeometry x="-14" y="274" width="60" height="30" as="geometry" />
        </mxCell>
        <mxCell id="ERc8KlYLKag8S-tgoUKt-40" value="" style="sketch=0;outlineConnect=0;fontColor=#232F3E;gradientColor=none;fillColor=#C925D1;strokeColor=none;dashed=0;verticalLabelPosition=bottom;verticalAlign=top;align=center;html=1;fontSize=12;fontStyle=0;aspect=fixed;pointerEvents=1;shape=mxgraph.aws4.rds_postgresql_instance;" vertex="1" parent="ERc8KlYLKag8S-tgoUKt-23">
          <mxGeometry x="30" y="294" width="44" height="44" as="geometry" />
        </mxCell>
        <mxCell id="ERc8KlYLKag8S-tgoUKt-18" value="" style="sketch=0;outlineConnect=0;fontColor=#232F3E;gradientColor=none;fillColor=#C925D1;strokeColor=none;dashed=0;verticalLabelPosition=bottom;verticalAlign=top;align=center;html=1;fontSize=12;fontStyle=0;aspect=fixed;pointerEvents=1;shape=mxgraph.aws4.rds_postgresql_instance;" vertex="1" parent="ERc8KlYLKag8S-tgoUKt-1">
          <mxGeometry x="590" y="94" width="44" height="44" as="geometry" />
        </mxCell>
      </root>
    </mxGraphModel>
  </diagram>
</mxfile>
